<mxfile host="Electron" agent="Mozilla/5.0 (Macintosh; Intel Mac OS X 10_15_7) AppleWebKit/537.36 (KHTML, like Gecko) draw.io/28.1.2 Chrome/138.0.7204.243 Electron/37.4.0 Safari/537.36" version="28.1.2">
  <diagram name="Page-1" id="97Q3bE4z9ELOOCjvSIZz">
    <mxGraphModel dx="1426" dy="859" grid="1" gridSize="10" guides="1" tooltips="1" connect="1" arrows="1" fold="1" page="1" pageScale="1" pageWidth="850" pageHeight="1100" math="0" shadow="0">
      <root>
        <mxCell id="0" />
        <mxCell id="1" parent="0" />
        <mxCell id="5jVs3YCB2MkBo97WY-wH-1" value="&lt;font style=&quot;color: rgb(102, 51, 0);&quot;&gt;10&lt;/font&gt;" style="whiteSpace=wrap;html=1;aspect=fixed;sketch=1;curveFitting=1;jiggle=2;fillColor=#fff2cc;strokeColor=#d6b656;fontSize=24;" parent="1" vertex="1">
          <mxGeometry x="600" y="280" width="40" height="40" as="geometry" />
        </mxCell>
        <mxCell id="5jVs3YCB2MkBo97WY-wH-2" value="&lt;font style=&quot;color: rgb(102, 51, 0);&quot;&gt;81&lt;/font&gt;" style="whiteSpace=wrap;html=1;aspect=fixed;sketch=1;curveFitting=1;jiggle=2;fillColor=#fff2cc;strokeColor=#d6b656;fontSize=24;" parent="1" vertex="1">
          <mxGeometry x="640" y="280" width="40" height="40" as="geometry" />
        </mxCell>
        <mxCell id="5jVs3YCB2MkBo97WY-wH-3" value="&lt;font style=&quot;color: rgb(102, 51, 0);&quot;&gt;96&lt;/font&gt;" style="whiteSpace=wrap;html=1;aspect=fixed;sketch=1;curveFitting=1;jiggle=2;fillColor=#fff2cc;strokeColor=#d6b656;fontSize=24;" parent="1" vertex="1">
          <mxGeometry x="680" y="280" width="40" height="40" as="geometry" />
        </mxCell>
        <mxCell id="5jVs3YCB2MkBo97WY-wH-4" value="&lt;font style=&quot;color: rgb(102, 51, 0);&quot;&gt;9&lt;/font&gt;" style="whiteSpace=wrap;html=1;aspect=fixed;sketch=1;curveFitting=1;jiggle=2;fillColor=#fff2cc;strokeColor=#d6b656;fontSize=24;" parent="1" vertex="1">
          <mxGeometry x="720" y="280" width="40" height="40" as="geometry" />
        </mxCell>
        <mxCell id="5jVs3YCB2MkBo97WY-wH-5" value="" style="whiteSpace=wrap;html=1;aspect=fixed;sketch=1;curveFitting=1;jiggle=2;fillColor=#fff2cc;strokeColor=#d6b656;" parent="1" vertex="1">
          <mxGeometry x="760" y="280" width="40" height="40" as="geometry" />
        </mxCell>
        <mxCell id="5jVs3YCB2MkBo97WY-wH-6" value="" style="whiteSpace=wrap;html=1;aspect=fixed;sketch=1;curveFitting=1;jiggle=2;fillColor=#fff2cc;strokeColor=#d6b656;" parent="1" vertex="1">
          <mxGeometry x="800" y="280" width="40" height="40" as="geometry" />
        </mxCell>
        <mxCell id="5jVs3YCB2MkBo97WY-wH-7" value="" style="whiteSpace=wrap;html=1;aspect=fixed;sketch=1;curveFitting=1;jiggle=2;fillColor=#fff2cc;strokeColor=#d6b656;" parent="1" vertex="1">
          <mxGeometry x="840" y="280" width="40" height="40" as="geometry" />
        </mxCell>
        <mxCell id="5jVs3YCB2MkBo97WY-wH-8" value="1" style="text;html=1;align=center;verticalAlign=middle;whiteSpace=wrap;rounded=0;" parent="1" vertex="1">
          <mxGeometry x="640" y="320" width="40" height="40" as="geometry" />
        </mxCell>
        <mxCell id="5jVs3YCB2MkBo97WY-wH-9" value="0" style="text;html=1;align=center;verticalAlign=middle;whiteSpace=wrap;rounded=0;" parent="1" vertex="1">
          <mxGeometry x="600" y="320" width="40" height="40" as="geometry" />
        </mxCell>
        <mxCell id="5jVs3YCB2MkBo97WY-wH-10" value="3" style="text;html=1;align=center;verticalAlign=middle;whiteSpace=wrap;rounded=0;" parent="1" vertex="1">
          <mxGeometry x="720" y="320" width="40" height="40" as="geometry" />
        </mxCell>
        <mxCell id="5jVs3YCB2MkBo97WY-wH-11" value="2" style="text;html=1;align=center;verticalAlign=middle;whiteSpace=wrap;rounded=0;" parent="1" vertex="1">
          <mxGeometry x="680" y="320" width="40" height="40" as="geometry" />
        </mxCell>
        <mxCell id="5jVs3YCB2MkBo97WY-wH-12" value="5" style="text;html=1;align=center;verticalAlign=middle;whiteSpace=wrap;rounded=0;" parent="1" vertex="1">
          <mxGeometry x="800" y="320" width="40" height="40" as="geometry" />
        </mxCell>
        <mxCell id="5jVs3YCB2MkBo97WY-wH-13" value="4" style="text;html=1;align=center;verticalAlign=middle;whiteSpace=wrap;rounded=0;" parent="1" vertex="1">
          <mxGeometry x="760" y="320" width="40" height="40" as="geometry" />
        </mxCell>
        <mxCell id="5jVs3YCB2MkBo97WY-wH-14" value="6" style="text;html=1;align=center;verticalAlign=middle;whiteSpace=wrap;rounded=0;" parent="1" vertex="1">
          <mxGeometry x="840" y="320" width="40" height="40" as="geometry" />
        </mxCell>
        <mxCell id="5jVs3YCB2MkBo97WY-wH-15" value="&lt;font style=&quot;font-size: 16px;&quot;&gt;底层数组&lt;/font&gt;" style="text;html=1;align=center;verticalAlign=middle;whiteSpace=wrap;rounded=0;" parent="1" vertex="1">
          <mxGeometry x="690" y="240" width="90" height="30" as="geometry" />
        </mxCell>
        <mxCell id="5jVs3YCB2MkBo97WY-wH-16" value="" style="rounded=0;whiteSpace=wrap;html=1;fillColor=none;movable=1;resizable=1;rotatable=1;deletable=1;editable=1;locked=0;connectable=1;" parent="1" vertex="1">
          <mxGeometry x="260" y="280" width="240" height="80" as="geometry" />
        </mxCell>
        <mxCell id="_Dnlyune0ulditVZsDrz-1" value="&lt;font style=&quot;font-size: 18px; color: rgb(77, 77, 77);&quot;&gt;int size = 4&lt;/font&gt;" style="rounded=0;whiteSpace=wrap;html=1;" vertex="1" parent="1">
          <mxGeometry x="260" y="320" width="240" height="40" as="geometry" />
        </mxCell>
        <mxCell id="_Dnlyune0ulditVZsDrz-2" value="&lt;font style=&quot;font-size: 24px;&quot;&gt;类&amp;nbsp;&lt;/font&gt;&lt;span style=&quot;font-size: 24px; background-color: transparent; color: light-dark(rgb(0, 0, 0), rgb(255, 255, 255));&quot;&gt;ArrayList&lt;/span&gt;" style="rounded=0;whiteSpace=wrap;html=1;" vertex="1" parent="1">
          <mxGeometry x="260" y="280" width="240" height="40" as="geometry" />
        </mxCell>
        <mxCell id="_Dnlyune0ulditVZsDrz-8" style="edgeStyle=orthogonalEdgeStyle;curved=1;rounded=0;orthogonalLoop=1;jettySize=auto;html=1;exitX=1;exitY=0.5;exitDx=0;exitDy=0;entryX=0;entryY=0.25;entryDx=0;entryDy=0;" edge="1" parent="1" source="_Dnlyune0ulditVZsDrz-7" target="5jVs3YCB2MkBo97WY-wH-1">
          <mxGeometry relative="1" as="geometry" />
        </mxCell>
        <mxCell id="_Dnlyune0ulditVZsDrz-7" value="&lt;font style=&quot;font-size: 18px; color: rgb(77, 77, 77);&quot;&gt;Object[] elementData&lt;/font&gt;" style="rounded=0;whiteSpace=wrap;html=1;" vertex="1" parent="1">
          <mxGeometry x="260" y="360" width="240" height="40" as="geometry" />
        </mxCell>
        <mxCell id="_Dnlyune0ulditVZsDrz-9" value="&lt;font style=&quot;font-size: 24px;&quot;&gt;接口 List&lt;/font&gt;" style="rounded=0;whiteSpace=wrap;html=1;" vertex="1" parent="1">
          <mxGeometry x="200" y="50" width="360" height="40" as="geometry" />
        </mxCell>
        <mxCell id="_Dnlyune0ulditVZsDrz-10" value="&lt;font style=&quot;font-size: 18px;&quot;&gt;Object get(int index)&lt;/font&gt;" style="rounded=0;whiteSpace=wrap;html=1;fontColor=#FF8000;" vertex="1" parent="1">
          <mxGeometry x="200" y="90" width="360" height="40" as="geometry" />
        </mxCell>
        <mxCell id="_Dnlyune0ulditVZsDrz-11" value="&lt;font style=&quot;font-size: 18px;&quot;&gt;void add(Object)&lt;/font&gt;" style="rounded=0;whiteSpace=wrap;html=1;fontColor=#FF8000;" vertex="1" parent="1">
          <mxGeometry x="200" y="130" width="360" height="40" as="geometry" />
        </mxCell>
        <mxCell id="_Dnlyune0ulditVZsDrz-12" value="" style="endArrow=block;html=1;rounded=0;exitX=0.5;exitY=0;exitDx=0;exitDy=0;endFill=0;" edge="1" parent="1" source="_Dnlyune0ulditVZsDrz-2" target="_Dnlyune0ulditVZsDrz-11">
          <mxGeometry width="50" height="50" relative="1" as="geometry">
            <mxPoint x="410" y="330" as="sourcePoint" />
            <mxPoint x="410" y="210" as="targetPoint" />
          </mxGeometry>
        </mxCell>
        <mxCell id="_Dnlyune0ulditVZsDrz-13" value="&lt;font style=&quot;font-size: 18px;&quot;&gt;实现&lt;/font&gt;" style="edgeLabel;html=1;align=center;verticalAlign=middle;resizable=0;points=[];" vertex="1" connectable="0" parent="_Dnlyune0ulditVZsDrz-12">
          <mxGeometry x="0.0667" relative="1" as="geometry">
            <mxPoint as="offset" />
          </mxGeometry>
        </mxCell>
        <mxCell id="_Dnlyune0ulditVZsDrz-16" value="&lt;font style=&quot;font-size: 18px;&quot;&gt;Object get(int index)&lt;/font&gt;" style="rounded=0;whiteSpace=wrap;html=1;fontColor=#FF8000;" vertex="1" parent="1">
          <mxGeometry x="260" y="400" width="240" height="40" as="geometry" />
        </mxCell>
        <mxCell id="_Dnlyune0ulditVZsDrz-17" value="&lt;font style=&quot;font-size: 18px;&quot;&gt;void add(Object)&lt;/font&gt;" style="rounded=0;whiteSpace=wrap;html=1;fontColor=#FF8000;" vertex="1" parent="1">
          <mxGeometry x="260" y="440" width="240" height="40" as="geometry" />
        </mxCell>
      </root>
    </mxGraphModel>
  </diagram>
</mxfile>
